<?xml version="1.0" encoding="UTF-8" standalone="no"?>
<svg viewBox="0 0 863.41833 1018.3079" xmlns="http://www.w3.org/2000/svg">
<defs>
<filter id="filter3443">
<feGaussianBlur result="result8" stdDeviation="4"/>
<feOffset dx="4" dy="4" result="result11"/>
<feComposite in="SourceGraphic" in2="result11" operator="in" result="result6"/>
<feFlood result="result10"/>
<feBlend in="result6" in2="result10" mode="normal" result="result12"/>
<feComposite in2="SourceGraphic" operator="in" result="result2"/>
</filter>
</defs>
<title>Tonometer</title>
<g transform="translate(-298.31222,-585.77969)">
<path d="m730.02145,1106.2834h226.85816v384.8336c0,62.5857-101.17877,112.9706-226.85816,112.9706s-226.85828-50.3849-226.85828-112.9706v-384.8336h226.85828z" fill="#4f4f4f" filter="url(#filter3443)"/>
<path d="m730.02147,585.77969c239.16679,0 431.70913,192.54236 431.70913,431.70921s-192.54234,431.7091-431.70913,431.7091-431.70925-192.5423-431.70925-431.7091 192.54233-431.70921 431.70925-431.70921z" fill="#393939" filter="url(#filter3443)"/>
<path d="m730.02157,650.88617a366.60266,366.60266 0 0,1 366.60266,366.60266 366.60266,366.60266 0 0,1 -366.60266,366.60266 366.60266,366.60266 0 0,1 -366.60266-366.60266 366.60266,366.60266 0 0,1 366.60266-366.60266" fill="#a9cce4" filter="url(#filter3443)"/>
<path d="m727.79295,657.4442v44.75554c.7774-.005 1.53915,0 2.31811,0 .82961,0 1.66811-.005 2.49631,0v-44.75554c-.83668-.005-1.6578,0-2.49631,0-.7788,0-1.54055-.005-2.31811,0zm-118.57525,20.68376c-1.54322.54603-3.10271,1.03845-4.63609,1.60478l15.3346,42.08089c1.52195-.56438 3.103-1.06384 4.63612-1.60476l-15.33463-42.08091zm241.9649,0-15.3346,42.08091c1.53312.54178 3.11416,1.03981 4.63611,1.60476l15.33445-42.08089c-1.52845-.56575-3.09765-1.05958-4.63596-1.60478zm-350.73316,61.69492c-1.27264,1.05255-2.48702,2.14018-3.74458,3.20953l28.88612,34.41359c1.25709-1.07229 2.47048-2.15742 3.74439-3.20968l-28.88593-34.41344zm459.3231,0-28.70759,34.41344c1.27405,1.05252 2.48756,2.13781 3.74439,3.20968l28.70774-34.41359c-1.25852-1.06945-2.47133-2.1574-3.74454-3.20953zm-540.45354,95.2168c-.85924,1.46648-1.65725,2.97784-2.49633,4.45774l38.87123,22.46686c.81126-1.43415 1.66318-2.85947 2.49633-4.27941l-38.87123-22.64519zm621.584.17793-38.6929,22.46689c.7915,1.35023 1.5454,2.73814 2.318,4.10107l38.8712-22.28854c-.8099-1.42756-1.6668-2.86428-2.4963-4.27942zm-664.91313,117.32715c-.28928,1.59884-.62362,3.20798-.89167,4.81431l44.22067,7.84548c.26799-1.61903.59962-3.20376.89167-4.81431l-44.22067-7.84548zm708.42043,0-44.2205,7.84548c.2919,1.61055.6236,3.19528.8917,4.81431l44.2205-7.84548c-.268-1.60633-.6025-3.21547-.8917-4.81431zm-665.0913,117.32694-44.22067,7.6674c.26802,1.6065.60244,3.2151.8917,4.8144l44.22067-7.8457c-.28209-1.5527-.63208-3.0753-.8917-4.6361zm621.7623,0c-.2695,1.6189-.5982,3.2042-.8917,4.8145l44.2205,7.6673c.2893-1.5993.6237-3.2079.8918-4.8144l-44.2206-7.6674zm-585.3874,103.0625-38.87123,22.467c.83949,1.4805 1.6368,2.9904 2.49633,4.4576l39.04955-22.4669c-.87476-1.4889-1.82331-2.953-2.67465-4.4577zm548.8342.1779c-.8127,1.4335-1.6622,2.8602-2.4963,4.2795l38.8712,22.2885c.8296-1.4158 1.6859-2.8512 2.4963-4.2793l-38.8712-22.2884zm-478.93712,84.34-28.88612,34.5919c1.24866,1.0624 2.48084,2.1639 3.74458,3.2096l28.88593-34.5918c-1.27407-1.0526-2.48756-2.1379-3.74439-3.2097zm409.04004.1779c-1.19361,1.0159-2.35707,2.0327-3.56607,3.0314l29.06426,34.4134c1.16403-.9651 2.23572-2.0516 3.38787-3.0312l-28.88606-34.4136zm-314.71481,55.4541-15.3346,42.259c1.53677.5686 3.08932,1.0568 4.63609,1.6049l15.33463-42.2592c-1.53568-.5432-3.11164-1.0398-4.63612-1.6047zm220.38958,0c-1.52464.5643-3.10034,1.0638-4.63612,1.6047l15.51293,42.2592c1.54141-.546 3.10456-1.0384 4.63596-1.6049l-15.51277-42.259zm-112.51284,19.614v39.406c-6.64975-.042-13.23136-.3146-19.79221-.7125v5.5277c6.5459.3908 13.15104.666 19.79221.7139 .71108.01 1.42769,0 2.13976,0 .89734,0 1.77803.013 2.67466,0 6.63637-.085 13.24887-.491 19.79221-.8917v-5.5275c-6.55703.4078-13.14937.807-19.79221.8917v-39.4061c-.8282.01-1.66628,0-2.49631,0-.7788,0-1.54013.01-2.31811,0z"/>
<g font-family="A3 Arial AzLat" font-size="6" font-weight="bold" transform="matrix(5.70588,0,0,5.70588,-36.89547,433.0946)">
<path d="m134.4082,149.79469c.92969,1e-005 1.39453.73145 1.39453,2.19434s-.46484,2.1914-1.39453,2.1914-1.39453-.73339-1.39453-2.20019c0-1.45703.46484-2.18554 1.39453-2.18555zm0,.68262c-.2539,0-.41699.20606-.48925.61816-.0293.16407-.0439.46192-.0439.89356s.0146.72851.0439.89062c.0723.41211.23535.61817.48925.61817s.41699-.20606.48926-.61817c.0293-.16015.0439-.45703.0439-.89062s-.0146-.72949-.0439-.89356c-.0723-.4121-.23535-.61816-.48926-.61816z"/>
</g>
<g font-family="A3 Arial AzLat" font-size="6" font-weight="bold" transform="matrix(5.70588,0,0,5.70588,-55.95215,-132.56185)">
<path d="m135.12305,154.10719h-.82325v-3.10254c-.30078.28125-.65527.48926-1.06347.62403v-.74708c.25586-.084.49804-.22362.72656-.41894 .24805-.21093.41211-.43359.49219-.66797h.66797z"/>
<path d="m137.0625,151.78981c-.40625-.17187-.60938-.46387-.60938-.87598 0-.36523.12598-.64746.37793-.84668 .23047-.18163.53418-.27245.91114-.27246 .36718,1e-005 .66796.0908.90234.27246 .25781.19922.38672.47754.38672.83496 0,.41993-.19727.71583-.5918.8877 .48633.19531.72949.5498.7295,1.06347-1e-005,.40626-.13184.73145-.39551.97559s-.58887.35449-.99903.35449-.74218-.1123-1.00781-.33691c-.28125-.24024-.42187-.55957-.42187-.95801 0-.52929.23925-.8955.71777-1.09863zm.16992-.8291c0,.16016.0449.28711.13477.38086s.21484.14062.375.14062 .28613-.0474.37793-.14209 .13769-.22314.13769-.38525c0-.15234-.0469-.2749-.14062-.36768s-.2168-.13916-.36914-.13916c-.15625,0-.28125.0464-.375.13916s-.14063.21729-.14063.37354zm-.0762,1.83984c0,.20117.0498.36817.14941.50098 .10938.14648.26172.21972.45704.21972s.3457-.0723.45117-.21679c.0937-.12891.14062-.29395.14062-.49512 0-.1875-.0527-.34375-.1582-.46875s-.25684-.19922-.44238-.19922c-.18165,0-.32813.0654-.43946.19629-.10547.12305-.1582.27734-.1582.46289z"/>
<path d="m141.08789,149.79469c.92969,1e-005 1.39453.73145 1.39453,2.19434s-.46484,2.1914-1.39453,2.1914-1.39453-.73339-1.39453-2.20019c0-1.45703.46484-2.18554 1.39453-2.18555zm0,.68262c-.25391,0-.41699.20606-.48926.61816-.0293.16407-.0439.46192-.0439.89356s.0146.72851.0439.89062c.0723.41211.23535.61817.48926.61817s.41699-.20606.48926-.61817c.0293-.16015.0439-.45703.0439-.89062s-.0147-.72949-.0439-.89356c-.0723-.4121-.23536-.61816-.48926-.61816z"/>
</g>
<g font-family="A3 Arial AzLat" font-size="6" font-weight="bold" transform="matrix(5.70588,0,0,5.70588,-152.95206,420.58235)">
<path d="m135.79687,153.34254v.76465h-2.88574c.0371-.35351.17969-.69726.42774-1.03125 .15234-.20508.41211-.47851.77929-.82031 .30469-.2832.48731-.46094.54786-.5332 .20312-.23828.30468-.46387.30468-.67676 0-.17578-.0483-.31445-.14502-.41602s-.23193-.15234-.40576-.15234c-.36328,0-.56055.22363-.5918.6709l-.82031-.082c.084-.84766.55762-1.27148 1.4209-1.27149 .38672,1e-005 .70605.10059.95801.30176 .27343.21875.41015.5166.41015.89355 0,.31251-.10058.61719-.30175.91407-.13477.20117-.35547.44336-.66211.72656-.39844.36719-.62207.60449-.6709.71191z"/>
<path d="m137.74805,149.79469c.92968,1e-005 1.39453.73145 1.39453,2.19434s-.46485,2.1914-1.39453,2.1914-1.39453-.73339-1.39453-2.20019c0-1.45703.46484-2.18554 1.39453-2.18555zm0,.68262c-.25391,0-.417.20606-.48926.61816-.0293.16407-.0439.46192-.0439.89356s.0146.72851.0439.89062c.0723.41211.23535.61817.48926.61817s.41699-.20606.48925-.61817c.0293-.16015.0439-.45703.0439-.89062s-.0146-.72949-.0439-.89356c-.0723-.4121-.23535-.61816-.48925-.61816z"/>
</g>
<g font-family="A3 Arial AzLat" font-size="6" font-weight="bold" transform="matrix(5.70588,0,0,5.70588,-233.36886,377.71819)">
<path d="m134.63086,154.10719v-.86426h-1.75781v-.7207l1.86328-2.72754h.6914v2.72461h.53321v.72363h-.53321v.86426zm0-1.58789v-1.46777l-.98731,1.46777z"/>
<path d="m137.74805,149.79469c.92968,1e-005 1.39453.73145 1.39453,2.19434s-.46485,2.1914-1.39453,2.1914-1.39453-.73339-1.39453-2.20019c0-1.45703.46484-2.18554 1.39453-2.18555zm0,.68262c-.25391,0-.417.20606-.48926.61816-.0293.16407-.0439.46192-.0439.89356s.0146.72851.0439.89062c.0723.41211.23535.61817.48926.61817s.41699-.20606.48925-.61817c.0293-.16015.0439-.45703.0439-.89062s-.0146-.72949-.0439-.89356c-.0723-.4121-.23535-.61816-.48925-.61816z"/>
</g>
<g font-family="A3 Arial AzLat" font-size="6" font-weight="bold" transform="matrix(5.70588,0,0,5.70588,-303.26579,293.19988)">
<path d="m135.80566,150.86403-.79687.0879c-.0391-.32031-.19629-.48047-.47168-.48047-.40625,0-.62891.40332-.66797,1.20996 .20703-.24219.46191-.36328.76465-.36328 .375,0 .68066.14258.91699.42773 .22265.26954.33398.59571.33399.97852-1e-005,.41992-.12305.76562-.36915,1.03711-.2539.27929-.58886.41894-1.00488.41894-.55273,0-.9541-.23632-1.2041-.70898-.19336-.36328-.29004-.84863-.29004-1.45606 0-.99999.24707-1.66113.74121-1.98339 .24414-.1582.51856-.2373.82324-.23731 .69922,1e-005 1.10742.35645 1.22461,1.06934zm-1.86621,1.7959c0,.21484.0469.40039.14063.55664 .11132.1875.2666.28125.46582.28125 .35547,0 .5332-.25586.5332-.76758 0-.2207-.04-.40137-.12012-.54199-.0976-.17578-.24902-.26367-.4541-.26368-.18945,1e-005-.33496.0781-.43652.23438-.0859.13281-.12891.29981-.12891.50098z"/>
<path d="m137.74805,149.79469c.92968,1e-005 1.39453.73145 1.39453,2.19434s-.46485,2.1914-1.39453,2.1914-1.39453-.73339-1.39453-2.20019c0-1.45703.46484-2.18554 1.39453-2.18555zm0,.68262c-.25391,0-.417.20606-.48926.61816-.0293.16407-.0439.46192-.0439.89356s.0146.72851.0439.89062c.0723.41211.23535.61817.48926.61817s.41699-.20606.48925-.61817c.0293-.16015.0439-.45703.0439-.89062s-.0146-.72949-.0439-.89356c-.0723-.4121-.23535-.61816-.48925-.61816z"/>
</g>
<g font-family="A3 Arial AzLat" font-size="6" font-weight="bold" transform="matrix(5.70588,0,0,5.70588,-326.2681,201.54921)">
<path d="m133.72266,151.78981c-.40625-.17187-.60938-.46387-.60938-.87598 0-.36523.12598-.64746.37793-.84668 .23047-.18163.53418-.27245.91113-.27246 .36719,1e-005 .66797.0908.90235.27246 .25781.19922.38671.47754.38672.83496-1e-005,.41993-.19727.71583-.5918.8877 .48632.19531.72949.5498.72949,1.06347 0,.40626-.13184.73145-.39551.97559s-.58887.35449-.99902.35449-.74219-.1123-1.00781-.33691c-.28125-.24024-.42188-.55957-.42188-.95801 0-.52929.23926-.8955.71778-1.09863zm.16992-.8291c0,.16016.0449.28711.13476.38086s.21485.14062.375.14062 .28613-.0474.37793-.14209 .1377-.22314.1377-.38525c0-.15234-.0469-.2749-.14063-.36768s-.21679-.13916-.36914-.13916c-.15625,0-.28125.0464-.375.13916s-.14062.21729-.14062.37354zm-.0762,1.83984c0,.20117.0498.36817.14941.50098 .10937.14648.26172.21972.45703.21972s.3457-.0723.45117-.21679c.0937-.12891.14063-.29395.14063-.49512 0-.1875-.0527-.34375-.1582-.46875s-.25684-.19922-.44239-.19922c-.18164,0-.32812.0654-.43945.19629-.10547.12305-.1582.27734-.1582.46289z"/>
<path d="m137.74805,149.79469c.92968,1e-005 1.39453.73145 1.39453,2.19434s-.46485,2.1914-1.39453,2.1914-1.39453-.73339-1.39453-2.20019c0-1.45703.46484-2.18554 1.39453-2.18555zm0,.68262c-.25391,0-.417.20606-.48926.61816-.0293.16407-.0439.46192-.0439.89356s.0146.72851.0439.89062c.0723.41211.23535.61817.48926.61817s.41699-.20606.48925-.61817c.0293-.16015.0439-.45703.0439-.89062s-.0146-.72949-.0439-.89356c-.0723-.4121-.23535-.61816-.48925-.61816z"/>
</g>
<g font-family="A3 Arial AzLat" font-size="6" font-weight="bold" transform="matrix(5.70588,0,0,5.70588,-326.2681,100.26988)">
<path d="m135.12305,154.10719h-.82325v-3.10254c-.30078.28125-.65527.48926-1.06347.62403v-.74708c.25586-.084.49804-.22362.72656-.41894 .24805-.21093.41211-.43359.49219-.66797h.66797z"/>
<path d="m137.74805,149.79469c.92968,1e-005 1.39453.73145 1.39453,2.19434s-.46485,2.1914-1.39453,2.1914-1.39453-.73339-1.39453-2.20019c0-1.45703.46484-2.18554 1.39453-2.18555zm0,.68262c-.25391,0-.417.20606-.48926.61816-.0293.16407-.0439.46192-.0439.89356s.0146.72851.0439.89062c.0723.41211.23535.61817.48926.61817s.41699-.20606.48925-.61817c.0293-.16015.0439-.45703.0439-.89062s-.0146-.72949-.0439-.89356c-.0723-.4121-.23535-.61816-.48925-.61816z"/>
<path d="m141.08789,149.79469c.92969,1e-005 1.39453.73145 1.39453,2.19434s-.46484,2.1914-1.39453,2.1914-1.39453-.73339-1.39453-2.20019c0-1.45703.46484-2.18554 1.39453-2.18555zm0,.68262c-.25391,0-.41699.20606-.48926.61816-.0293.16407-.0439.46192-.0439.89356s.0146.72851.0439.89062c.0723.41211.23535.61817.48926.61817s.41699-.20606.48926-.61817c.0293-.16015.0439-.45703.0439-.89062s-.0147-.72949-.0439-.89356c-.0723-.4121-.23536-.61816-.48926-.61816z"/>
</g>
<g font-family="A3 Arial AzLat" font-size="6" font-weight="bold" transform="matrix(5.70588,0,0,5.70588,-299.2543,15.03835)">
<path d="m135.12305,154.10719h-.82325v-3.10254c-.30078.28125-.65527.48926-1.06347.62403v-.74708c.25586-.084.49804-.22362.72656-.41894 .24805-.21093.41211-.43359.49219-.66797h.66797z"/>
<path d="m139.13672,153.34254v.76465h-2.88574c.0371-.35351.17968-.69726.42773-1.03125 .15234-.20508.41211-.47851.7793-.82031 .30468-.2832.4873-.46094.54785-.5332 .20312-.23828.30468-.46387.30469-.67676-1e-005-.17578-.0483-.31445-.14502-.41602s-.23194-.15234-.40576-.15234c-.36329,0-.56055.22363-.5918.6709l-.82031-.082c.084-.84766.55761-1.27148 1.42089-1.27149 .38672,1e-005 .70606.10059.95801.30176 .27344.21875.41016.5166.41016.89355 0,.31251-.10059.61719-.30176.91407-.13477.20117-.35547.44336-.66211.72656-.39844.36719-.62207.60449-.6709.71191z"/>
<path d="m141.08789,149.79469c.92969,1e-005 1.39453.73145 1.39453,2.19434s-.46484,2.1914-1.39453,2.1914-1.39453-.73339-1.39453-2.20019c0-1.45703.46484-2.18554 1.39453-2.18555zm0,.68262c-.25391,0-.41699.20606-.48926.61816-.0293.16407-.0439.46192-.0439.89356s.0146.72851.0439.89062c.0723.41211.23535.61817.48926.61817s.41699-.20606.48926-.61817c.0293-.16015.0439-.45703.0439-.89062s-.0147-.72949-.0439-.89356c-.0723-.4121-.23536-.61816-.48926-.61816z"/>
</g>
<g font-family="A3 Arial AzLat" font-size="6" font-weight="bold" transform="matrix(5.70588,0,0,5.70588,-238.33724,-67.99338)">
<path d="m135.12305,154.10719h-.82325v-3.10254c-.30078.28125-.65527.48926-1.06347.62403v-.74708c.25586-.084.49804-.22362.72656-.41894 .24805-.21093.41211-.43359.49219-.66797h.66797z"/>
<path d="m137.9707,154.10719v-.86426h-1.75781v-.7207l1.86328-2.72754h.69141v2.72461h.5332v.72363h-.5332v.86426zm0-1.58789v-1.46777l-.9873,1.46777z"/>
<path d="m141.08789,149.79469c.92969,1e-005 1.39453.73145 1.39453,2.19434s-.46484,2.1914-1.39453,2.1914-1.39453-.73339-1.39453-2.20019c0-1.45703.46484-2.18554 1.39453-2.18555zm0,.68262c-.25391,0-.41699.20606-.48926.61816-.0293.16407-.0439.46192-.0439.89356s.0146.72851.0439.89062c.0723.41211.23535.61817.48926.61817s.41699-.20606.48926-.61817c.0293-.16015.0439-.45703.0439-.89062s-.0147-.72949-.0439-.89356c-.0723-.4121-.23536-.61816-.48926-.61816z"/>
</g>
<g font-family="A3 Arial AzLat" font-size="6" font-weight="bold" transform="matrix(5.70588,0,0,5.70588,-155.24536,-120.04957)">
<path d="m135.12305,154.10719h-.82325v-3.10254c-.30078.28125-.65527.48926-1.06347.62403v-.74708c.25586-.084.49804-.22362.72656-.41894 .24805-.21093.41211-.43359.49219-.66797h.66797z"/>
<path d="m139.14551,150.86403-.79688.0879c-.0391-.32031-.19629-.48047-.47168-.48047-.40625,0-.6289.40332-.66797,1.20996 .20703-.24219.46192-.36328.76465-.36328 .375,0 .68066.14258.91699.42773 .22266.26954.33399.59571.33399.97852 0,.41992-.12305.76562-.36914,1.03711-.25391.27929-.58887.41894-1.00488.41894-.55274,0-.95411-.23632-1.20411-.70898-.19336-.36328-.29003-.84863-.29003-1.45606 0-.99999.24707-1.66113.74121-1.98339 .24414-.1582.51855-.2373.82324-.23731 .69921,1e-005 1.10742.35645 1.22461,1.06934zm-1.86621,1.7959c0,.21484.0469.40039.14062.55664 .11133.1875.2666.28125.46582.28125 .35547,0 .5332-.25586.53321-.76758-1e-005-.2207-.0401-.40137-.12012-.54199-.0977-.17578-.24903-.26367-.4541-.26368-.18946,1e-005-.33497.0781-.43653.23438-.0859.13281-.1289.29981-.1289.50098z"/>
<path d="m141.08789,149.79469c.92969,1e-005 1.39453.73145 1.39453,2.19434s-.46484,2.1914-1.39453,2.1914-1.39453-.73339-1.39453-2.20019c0-1.45703.46484-2.18554 1.39453-2.18555zm0,.68262c-.25391,0-.41699.20606-.48926.61816-.0293.16407-.0439.46192-.0439.89356s.0146.72851.0439.89062c.0723.41211.23535.61817.48926.61817s.41699-.20606.48926-.61817c.0293-.16015.0439-.45703.0439-.89062s-.0147-.72949-.0439-.89356c-.0723-.4121-.23536-.61816-.48926-.61816z"/>
</g>
<g font-family="A3 Arial AzLat" font-size="6" font-weight="bold" transform="matrix(5.70588,0,0,5.70588,41.60746,-120.04957)">
<path d="m135.79687,153.34254v.76465h-2.88574c.0371-.35351.17969-.69726.42774-1.03125 .15234-.20508.41211-.47851.77929-.82031 .30469-.2832.48731-.46094.54786-.5332 .20312-.23828.30468-.46387.30468-.67676 0-.17578-.0483-.31445-.14502-.41602s-.23193-.15234-.40576-.15234c-.36328,0-.56055.22363-.5918.6709l-.82031-.082c.084-.84766.55762-1.27148 1.4209-1.27149 .38672,1e-005 .70605.10059.95801.30176 .27343.21875.41015.5166.41015.89355 0,.31251-.10058.61719-.30175.91407-.13477.20117-.35547.44336-.66211.72656-.39844.36719-.62207.60449-.6709.71191z"/>
<path d="m137.74805,149.79469c.92968,1e-005 1.39453.73145 1.39453,2.19434s-.46485,2.1914-1.39453,2.1914-1.39453-.73339-1.39453-2.20019c0-1.45703.46484-2.18554 1.39453-2.18555zm0,.68262c-.25391,0-.417.20606-.48926.61816-.0293.16407-.0439.46192-.0439.89356s.0146.72851.0439.89062c.0723.41211.23535.61817.48926.61817s.41699-.20606.48925-.61817c.0293-.16015.0439-.45703.0439-.89062s-.0146-.72949-.0439-.89356c-.0723-.4121-.23535-.61816-.48925-.61816z"/>
<path d="m141.08789,149.79469c.92969,1e-005 1.39453.73145 1.39453,2.19434s-.46484,2.1914-1.39453,2.1914-1.39453-.73339-1.39453-2.20019c0-1.45703.46484-2.18554 1.39453-2.18555zm0,.68262c-.25391,0-.41699.20606-.48926.61816-.0293.16407-.0439.46192-.0439.89356s.0146.72851.0439.89062c.0723.41211.23535.61817.48926.61817s.41699-.20606.48926-.61817c.0293-.16015.0439-.45703.0439-.89062s-.0147-.72949-.0439-.89356c-.0723-.4121-.23536-.61816-.48926-.61816z"/>
</g>
<g font-family="A3 Arial AzLat" font-size="6" font-weight="bold" transform="matrix(5.70588,0,0,5.70588,121.82207,-67.99338)">
<path d="m135.79687,153.34254v.76465h-2.88574c.0371-.35351.17969-.69726.42774-1.03125 .15234-.20508.41211-.47851.77929-.82031 .30469-.2832.48731-.46094.54786-.5332 .20312-.23828.30468-.46387.30468-.67676 0-.17578-.0483-.31445-.14502-.41602s-.23193-.15234-.40576-.15234c-.36328,0-.56055.22363-.5918.6709l-.82031-.082c.084-.84766.55762-1.27148 1.4209-1.27149 .38672,1e-005 .70605.10059.95801.30176 .27343.21875.41015.5166.41015.89355 0,.31251-.10058.61719-.30175.91407-.13477.20117-.35547.44336-.66211.72656-.39844.36719-.62207.60449-.6709.71191z"/>
<path d="m139.13672,153.34254v.76465h-2.88574c.0371-.35351.17968-.69726.42773-1.03125 .15234-.20508.41211-.47851.7793-.82031 .30468-.2832.4873-.46094.54785-.5332 .20312-.23828.30468-.46387.30469-.67676-1e-005-.17578-.0483-.31445-.14502-.41602s-.23194-.15234-.40576-.15234c-.36329,0-.56055.22363-.5918.6709l-.82031-.082c.084-.84766.55761-1.27148 1.42089-1.27149 .38672,1e-005 .70606.10059.95801.30176 .27344.21875.41016.5166.41016.89355 0,.31251-.10059.61719-.30176.91407-.13477.20117-.35547.44336-.66211.72656-.39844.36719-.62207.60449-.6709.71191z"/>
<path d="m141.08789,149.79469c.92969,1e-005 1.39453.73145 1.39453,2.19434s-.46484,2.1914-1.39453,2.1914-1.39453-.73339-1.39453-2.20019c0-1.45703.46484-2.18554 1.39453-2.18555zm0,.68262c-.25391,0-.41699.20606-.48926.61816-.0293.16407-.0439.46192-.0439.89356s.0146.72851.0439.89062c.0723.41211.23535.61817.48926.61817s.41699-.20606.48926-.61817c.0293-.16015.0439-.45703.0439-.89062s-.0147-.72949-.0439-.89356c-.0723-.4121-.23536-.61816-.48926-.61816z"/>
</g>
<g font-family="A3 Arial AzLat" font-size="6" font-weight="bold" transform="matrix(5.70588,0,0,5.70588,187.76745,15.03835)">
<path d="m135.79687,153.34254v.76465h-2.88574c.0371-.35351.17969-.69726.42774-1.03125 .15234-.20508.41211-.47851.77929-.82031 .30469-.2832.48731-.46094.54786-.5332 .20312-.23828.30468-.46387.30468-.67676 0-.17578-.0483-.31445-.14502-.41602s-.23193-.15234-.40576-.15234c-.36328,0-.56055.22363-.5918.6709l-.82031-.082c.084-.84766.55762-1.27148 1.4209-1.27149 .38672,1e-005 .70605.10059.95801.30176 .27343.21875.41015.5166.41015.89355 0,.31251-.10058.61719-.30175.91407-.13477.20117-.35547.44336-.66211.72656-.39844.36719-.62207.60449-.6709.71191z"/>
<path d="m137.9707,154.10719v-.86426h-1.75781v-.7207l1.86328-2.72754h.69141v2.72461h.5332v.72363h-.5332v.86426zm0-1.58789v-1.46777l-.9873,1.46777z"/>
<path d="m141.08789,149.79469c.92969,1e-005 1.39453.73145 1.39453,2.19434s-.46484,2.1914-1.39453,2.1914-1.39453-.73339-1.39453-2.20019c0-1.45703.46484-2.18554 1.39453-2.18555zm0,.68262c-.25391,0-.41699.20606-.48926.61816-.0293.16407-.0439.46192-.0439.89356s.0146.72851.0439.89062c.0723.41211.23535.61817.48926.61817s.41699-.20606.48926-.61817c.0293-.16015.0439-.45703.0439-.89062s-.0147-.72949-.0439-.89356c-.0723-.4121-.23536-.61816-.48926-.61816z"/>
</g>
<g font-family="A3 Arial AzLat" font-size="6" font-weight="bold" transform="matrix(5.70588,0,0,5.70588,214.76928,100.26988)">
<path d="m135.79687,153.34254v.76465h-2.88574c.0371-.35351.17969-.69726.42774-1.03125 .15234-.20508.41211-.47851.77929-.82031 .30469-.2832.48731-.46094.54786-.5332 .20312-.23828.30468-.46387.30468-.67676 0-.17578-.0483-.31445-.14502-.41602s-.23193-.15234-.40576-.15234c-.36328,0-.56055.22363-.5918.6709l-.82031-.082c.084-.84766.55762-1.27148 1.4209-1.27149 .38672,1e-005 .70605.10059.95801.30176 .27343.21875.41015.5166.41015.89355 0,.31251-.10058.61719-.30175.91407-.13477.20117-.35547.44336-.66211.72656-.39844.36719-.62207.60449-.6709.71191z"/>
<path d="m139.14551,150.86403-.79688.0879c-.0391-.32031-.19629-.48047-.47168-.48047-.40625,0-.6289.40332-.66797,1.20996 .20703-.24219.46192-.36328.76465-.36328 .375,0 .68066.14258.91699.42773 .22266.26954.33399.59571.33399.97852 0,.41992-.12305.76562-.36914,1.03711-.25391.27929-.58887.41894-1.00488.41894-.55274,0-.95411-.23632-1.20411-.70898-.19336-.36328-.29003-.84863-.29003-1.45606 0-.99999.24707-1.66113.74121-1.98339 .24414-.1582.51855-.2373.82324-.23731 .69921,1e-005 1.10742.35645 1.22461,1.06934zm-1.86621,1.7959c0,.21484.0469.40039.14062.55664 .11133.1875.2666.28125.46582.28125 .35547,0 .5332-.25586.53321-.76758-1e-005-.2207-.0401-.40137-.12012-.54199-.0977-.17578-.24903-.26367-.4541-.26368-.18946,1e-005-.33497.0781-.43653.23438-.0859.13281-.1289.29981-.1289.50098z"/>
<path d="m141.08789,149.79469c.92969,1e-005 1.39453.73145 1.39453,2.19434s-.46484,2.1914-1.39453,2.1914-1.39453-.73339-1.39453-2.20019c0-1.45703.46484-2.18554 1.39453-2.18555zm0,.68262c-.25391,0-.41699.20606-.48926.61816-.0293.16407-.0439.46192-.0439.89356s.0146.72851.0439.89062c.0723.41211.23535.61817.48926.61817s.41699-.20606.48926-.61817c.0293-.16015.0439-.45703.0439-.89062s-.0147-.72949-.0439-.89356c-.0723-.4121-.23536-.61816-.48926-.61816z"/>
</g>
<g font-family="A3 Arial AzLat" font-size="6" font-weight="bold" transform="matrix(5.70588,0,0,5.70588,214.36376,201.54921)">
<path d="m135.79687,153.34254v.76465h-2.88574c.0371-.35351.17969-.69726.42774-1.03125 .15234-.20508.41211-.47851.77929-.82031 .30469-.2832.48731-.46094.54786-.5332 .20312-.23828.30468-.46387.30468-.67676 0-.17578-.0483-.31445-.14502-.41602s-.23193-.15234-.40576-.15234c-.36328,0-.56055.22363-.5918.6709l-.82031-.082c.084-.84766.55762-1.27148 1.4209-1.27149 .38672,1e-005 .70605.10059.95801.30176 .27343.21875.41015.5166.41015.89355 0,.31251-.10058.61719-.30175.91407-.13477.20117-.35547.44336-.66211.72656-.39844.36719-.62207.60449-.6709.71191z"/>
<path d="m137.0625,151.78981c-.40625-.17187-.60938-.46387-.60938-.87598 0-.36523.12598-.64746.37793-.84668 .23047-.18163.53418-.27245.91114-.27246 .36718,1e-005 .66796.0908.90234.27246 .25781.19922.38672.47754.38672.83496 0,.41993-.19727.71583-.5918.8877 .48633.19531.72949.5498.7295,1.06347-1e-005,.40626-.13184.73145-.39551.97559s-.58887.35449-.99903.35449-.74218-.1123-1.00781-.33691c-.28125-.24024-.42187-.55957-.42187-.95801 0-.52929.23925-.8955.71777-1.09863zm.16992-.8291c0,.16016.0449.28711.13477.38086s.21484.14062.375.14062 .28613-.0474.37793-.14209 .13769-.22314.13769-.38525c0-.15234-.0469-.2749-.14062-.36768s-.2168-.13916-.36914-.13916c-.15625,0-.28125.0464-.375.13916s-.14063.21729-.14063.37354zm-.0762,1.83984c0,.20117.0498.36817.14941.50098 .10938.14648.26172.21972.45704.21972s.3457-.0723.45117-.21679c.0937-.12891.14062-.29395.14062-.49512 0-.1875-.0527-.34375-.1582-.46875s-.25684-.19922-.44238-.19922c-.18165,0-.32813.0654-.43946.19629-.10547.12305-.1582.27734-.1582.46289z"/>
<path d="m141.08789,149.79469c.92969,1e-005 1.39453.73145 1.39453,2.19434s-.46484,2.1914-1.39453,2.1914-1.39453-.73339-1.39453-2.20019c0-1.45703.46484-2.18554 1.39453-2.18555zm0,.68262c-.25391,0-.41699.20606-.48926.61816-.0293.16407-.0439.46192-.0439.89356s.0146.72851.0439.89062c.0723.41211.23535.61817.48926.61817s.41699-.20606.48926-.61817c.0293-.16015.0439-.45703.0439-.89062s-.0147-.72949-.0439-.89356c-.0723-.4121-.23536-.61816-.48926-.61816z"/>
</g>
<g font-family="A3 Arial AzLat" font-size="6" font-weight="bold" transform="matrix(5.70588,0,0,5.70588,191.78036,293.19988)">
<path d="m132.9873,152.96754 .79688-.0967c.0586.41797.26172.62696.60937.62696 .19141,0 .34278-.0742.45411-.22266 .0996-.13281.14941-.29785.14941-.49512 0-.18554-.0488-.34082-.14648-.46582-.10547-.13671-.24805-.20507-.42774-.20508-.10547,1e-005-.23145.0205-.37793.0615l.0908-.6709c.45703,0 .68555-.18457.68555-.55371 0-.14258-.043-.25732-.12891-.34424s-.20019-.13037-.34277-.13037c-.31641,0-.49707.19141-.54199.57422l-.75879-.12891c.13476-.74804.57617-1.12206 1.32422-1.12207 .33984,1e-005 .63183.0986.87597.2959 .26563.21094.39844.48242.39844.81445 0,.3711-.20606.66895-.61816.89356 .24999.0488.44921.16894.59765.36035 .14258.18555.21387.40723.21387.66504 0,.39258-.14356.71875-.43066.97851-.27735.25196-.61426.37793-1.01075.37793-.3789,0-.69726-.10742-.95507-.32226-.26368-.22071-.41602-.51758-.45704-.89063z"/>
<path d="m137.74805,149.79469c.92968,1e-005 1.39453.73145 1.39453,2.19434s-.46485,2.1914-1.39453,2.1914-1.39453-.73339-1.39453-2.20019c0-1.45703.46484-2.18554 1.39453-2.18555zm0,.68262c-.25391,0-.417.20606-.48926.61816-.0293.16407-.0439.46192-.0439.89356s.0146.72851.0439.89062c.0723.41211.23535.61817.48926.61817s.41699-.20606.48925-.61817c.0293-.16015.0439-.45703.0439-.89062s-.0146-.72949-.0439-.89356c-.0723-.4121-.23535-.61816-.48925-.61816z"/>
<path d="m141.08789,149.79469c.92969,1e-005 1.39453.73145 1.39453,2.19434s-.46484,2.1914-1.39453,2.1914-1.39453-.73339-1.39453-2.20019c0-1.45703.46484-2.18554 1.39453-2.18555zm0,.68262c-.25391,0-.41699.20606-.48926.61816-.0293.16407-.0439.46192-.0439.89356s.0146.72851.0439.89062c.0723.41211.23535.61817.48926.61817s.41699-.20606.48926-.61817c.0293-.16015.0439-.45703.0439-.89062s-.0147-.72949-.0439-.89356c-.0723-.4121-.23536-.61816-.48926-.61816z"/>
</g>
<g font-family="A3 Arial AzLat" font-size="6" font-weight="bold" transform="matrix(5.70588,0,0,5.70588,121.88327,377.71819)">
<path d="m132.9873,152.96754 .79688-.0967c.0586.41797.26172.62696.60937.62696 .19141,0 .34278-.0742.45411-.22266 .0996-.13281.14941-.29785.14941-.49512 0-.18554-.0488-.34082-.14648-.46582-.10547-.13671-.24805-.20507-.42774-.20508-.10547,1e-005-.23145.0205-.37793.0615l.0908-.6709c.45703,0 .68555-.18457.68555-.55371 0-.14258-.043-.25732-.12891-.34424s-.20019-.13037-.34277-.13037c-.31641,0-.49707.19141-.54199.57422l-.75879-.12891c.13476-.74804.57617-1.12206 1.32422-1.12207 .33984,1e-005 .63183.0986.87597.2959 .26563.21094.39844.48242.39844.81445 0,.3711-.20606.66895-.61816.89356 .24999.0488.44921.16894.59765.36035 .14258.18555.21387.40723.21387.66504 0,.39258-.14356.71875-.43066.97851-.27735.25196-.61426.37793-1.01075.37793-.3789,0-.69726-.10742-.95507-.32226-.26368-.22071-.41602-.51758-.45704-.89063z"/>
<path d="m139.13672,153.34254v.76465h-2.88574c.0371-.35351.17968-.69726.42773-1.03125 .15234-.20508.41211-.47851.7793-.82031 .30468-.2832.4873-.46094.54785-.5332 .20312-.23828.30468-.46387.30469-.67676-1e-005-.17578-.0483-.31445-.14502-.41602s-.23194-.15234-.40576-.15234c-.36329,0-.56055.22363-.5918.6709l-.82031-.082c.084-.84766.55761-1.27148 1.42089-1.27149 .38672,1e-005 .70606.10059.95801.30176 .27344.21875.41016.5166.41016.89355 0,.31251-.10059.61719-.30176.91407-.13477.20117-.35547.44336-.66211.72656-.39844.36719-.62207.60449-.6709.71191z"/>
<path d="m141.08789,149.79469c.92969,1e-005 1.39453.73145 1.39453,2.19434s-.46484,2.1914-1.39453,2.1914-1.39453-.73339-1.39453-2.20019c0-1.45703.46484-2.18554 1.39453-2.18555zm0,.68262c-.25391,0-.41699.20606-.48926.61816-.0293.16407-.0439.46192-.0439.89356s.0146.72851.0439.89062c.0723.41211.23535.61817.48926.61817s.41699-.20606.48926-.61817c.0293-.16015.0439-.45703.0439-.89062s-.0147-.72949-.0439-.89356c-.0723-.4121-.23536-.61816-.48926-.61816z"/>
</g>
<g font-family="A3 Arial AzLat" font-size="6" font-weight="bold" transform="matrix(5.70588,0,0,5.70588,40.21799,420.58235)">
<path d="m132.9873,152.96754 .79688-.0967c.0586.41797.26172.62696.60937.62696 .19141,0 .34278-.0742.45411-.22266 .0996-.13281.14941-.29785.14941-.49512 0-.18554-.0488-.34082-.14648-.46582-.10547-.13671-.24805-.20507-.42774-.20508-.10547,1e-005-.23145.0205-.37793.0615l.0908-.6709c.45703,0 .68555-.18457.68555-.55371 0-.14258-.043-.25732-.12891-.34424s-.20019-.13037-.34277-.13037c-.31641,0-.49707.19141-.54199.57422l-.75879-.12891c.13476-.74804.57617-1.12206 1.32422-1.12207 .33984,1e-005 .63183.0986.87597.2959 .26563.21094.39844.48242.39844.81445 0,.3711-.20606.66895-.61816.89356 .24999.0488.44921.16894.59765.36035 .14258.18555.21387.40723.21387.66504 0,.39258-.14356.71875-.43066.97851-.27735.25196-.61426.37793-1.01075.37793-.3789,0-.69726-.10742-.95507-.32226-.26368-.22071-.41602-.51758-.45704-.89063z"/>
<path d="m137.9707,154.10719v-.86426h-1.75781v-.7207l1.86328-2.72754h.69141v2.72461h.5332v.72363h-.5332v.86426zm0-1.58789v-1.46777l-.9873,1.46777z"/>
<path d="m141.08789,149.79469c.92969,1e-005 1.39453.73145 1.39453,2.19434s-.46484,2.1914-1.39453,2.1914-1.39453-.73339-1.39453-2.20019c0-1.45703.46484-2.18554 1.39453-2.18555zm0,.68262c-.25391,0-.41699.20606-.48926.61816-.0293.16407-.0439.46192-.0439.89356s.0146.72851.0439.89062c.0723.41211.23535.61817.48926.61817s.41699-.20606.48926-.61817c.0293-.16015.0439-.45703.0439-.89062s-.0147-.72949-.0439-.89356c-.0723-.4121-.23536-.61816-.48926-.61816z"/>
</g>
<g transform="matrix(2.60899,0,0,2.60899,-479.98016,-942.51127)">
<g font-family="Arial" font-size="9" font-weight="bold" transform="matrix(2.18701,0,0,2.18701,-354.19336,498.43)">
<path d="m358.55371,139.69289h1.13818v.6372c.40723-.49511.89209-.74267 1.45459-.74267 .29883,0 .55811.0615.77784.18457s.39989.30908.54052.5581c.20508-.24902.42627-.43505.66358-.5581s.49072-.18457.76025-.18457c.34277,0 .63281.0696.87012.20874s.41454.34351.53174.61304c.0849.19922.12743.52148.12744.96679v2.98389h-1.23486v-2.66748c-1e-005-.46289-.0425-.76172-.12745-.89649-.11426-.17577-.29004-.26366-.52734-.26367-.17286,1e-005-.33545.0527-.48779.15821s-.26221.26001-.32959.46362-.10108.52515-.10108.9646v2.24121h-1.23486v-2.55762c0-.4541-.022-.74707-.0659-.8789s-.11206-.22998-.20434-.29444-.21754-.0967-.37574-.0967c-.19043,1e-005-.36181.0513-.51416.15381s-.26147.25049-.32739.44385-.0989.51416-.0989.9624v2.26758h-1.23486z"/>
<path d="m366.55176,139.69289h1.13818v.6372c.40723-.49511.89209-.74267 1.45459-.74267 .29883,0 .5581.0615.77783.18457s.3999.30908.54053.5581c.20507-.24902.42627-.43505.66357-.5581s.49072-.18457.76026-.18457c.34277,0 .6328.0696.87012.20874s.41454.34351.53173.61304c.085.19922.12744.52148.12745.96679v2.98389h-1.23487v-2.66748c0-.46289-.0425-.76172-.12744-.89649-.11426-.17577-.29004-.26366-.52734-.26367-.17286,1e-005-.33546.0527-.4878.15821s-.26221.26001-.32959.46362-.10107.52515-.10107.9646v2.24121h-1.23486v-2.55762c-1e-005-.4541-.022-.74707-.0659-.8789s-.11206-.22998-.20435-.29444-.21753-.0967-.37573-.0967c-.19043,1e-005-.36182.0513-.51416.15381s-.26148.25049-.32739.44385-.0989.51416-.0989.9624v2.26758h-1.23486z"/>
<path d="m374.65527,144.35988v-6.44238h1.30078v2.53564h2.54883v-2.53564h1.30078v6.44238h-1.30078v-2.8169h-2.54883v2.8169z"/>
<path d="m381.03174,144.6675 1.41064.17138c.0234.16406.0776.27686.1626.33838 .11719.0879.30176.13184.55371.13184 .32226,0 .56396-.0483.7251-.14502 .10839-.0645.19043-.16846.24609-.31201 .0381-.10254.0571-.29151.0571-.5669v-.68115c-.36914.50391-.83496.75586-1.39746.75586-.62695,0-1.12354-.26514-1.48975-.79541-.28711-.41895-.43066-.94043-.43066-1.56445 0-.78223.18823-1.37988.5647-1.79297s.84448-.61963 1.40405-.61963c.57715,0 1.05322.25342 1.42822.76025v-.65478h1.15576v4.18799c0,.55078-.0454.9624-.13623,1.23486s-.21826.48633-.38232.6416-.38306.27685-.65698.36475-.62037.13183-1.03931.13183c-.79102,0-1.35205-.1355-1.6831-.40649s-.49659-.6145-.49659-1.03052c0-.041.001-.0908.004-.14941zm1.10303-2.7378c-1e-005,.49512.0959.85767.28784,1.08765s.42846.34497.70971.34497c.30176,0 .55664-.11792.76465-.35376s.31201-.5852.31201-1.0481c0-.48339-.0996-.84228-.29882-1.07666s-.45118-.35155-.75586-.35156-.5398.115-.73169.34497-.28785.58082-.28784,1.05249z"/>
</g>
<path d="m459.92106,682.1388 1.50355,65.61032c-1.12678.75996-1.91363,2.01833-1.91363,3.48554 0,1.54935.88397,2.88337 2.11865,3.62224l2.11869,92.74289 2.11865-92.67452c1.28166-.7271 2.1187-2.106 2.1187-3.69061 0-1.50172-.74185-2.80172-1.91369-3.55389l1.5036-65.54197-3.82726,7.51787-3.82726-7.51787z"/>
<path d="m463.78232,749.0031c1.24465,0 2.24667,1.00202 2.24667,2.24666s-1.00202,2.24668-2.24667,2.24668-2.24668-1.00202-2.24668-2.24668 1.00202-2.24666 2.24668-2.24666z" fill="#858585"/>
</g>
<path d="m729.80113,600.16881c-231.05871,0-417.09958,186.0409-417.09958,417.09959s186.04087,417.5405 417.09958,417.5405 417.54047-186.4819 417.54047-417.5405-186.48178-417.09959-417.54047-417.09959zm0,12.78635c224.09643,0 404.31327,180.21678 404.31327,404.31324s-180.21684,404.3133-404.31327,404.3133-403.87231-180.217-403.87231-404.3133 179.77589-404.31324 403.87231-404.31324z" fill="#888" fill-opacity=".99608" filter="url(#filter3443)"/>
<path d="m790.35067,667.63663-5.87022,33.18304c.86139.14266 1.74998.25818 2.60899.40765l5.87022-33.18304c-.86965-.15083-1.73712-.26312-2.60899-.40765zm-120.42101.40765c-.87275.15119-1.73849.33168-2.60898.48918l5.87022,33.10151c.86448-.15776 1.74204-.2568 2.60898-.40765l-5.87022-33.18304zm236.76548,40.76541-16.87688,29.26956 2.28287,1.30449 16.87688-29.26956c-.76042-.43965-1.51883-.87036-2.28287-1.30449zm-352.62076,1.14143c-.73971.42694-1.46508.87235-2.20133,1.30449l16.87688,29.26956c.75206-.4433 1.52683-.86718 2.28286-1.30449l-16.95841-29.26956zm447.60412,77.78039-25.84523,21.6872 1.71215,2.03827 25.92678-21.6872c-.5805-.69773-1.2079-1.34514-1.7937-2.03827zm-541.69068,1.38603c-.554.66264-1.16295,1.28993-1.71215,1.95674l25.9268,21.76872c.5508-.66969 1.07447-1.37318 1.63062-2.03827l-25.84527-21.68719zm603.73568,105.66393-31.7155,11.49584c.3043.83637.5993,1.68784.8968,2.52746l31.7155-11.57738c-.2905-.82076-.6004-1.628-.8968-2.44592zm-664.80226.81531c-.29437.81885-.60832,1.62422-.89684,2.44592l31.71549,11.49585c.28412-.80801.52491-1.64095.81531-2.44593l-31.63396-11.49584zm-20.87189,120.58402c0,.8757-.006,1.735 0,2.609h33.5907c-.007-.8671-.0815-1.7402-.0815-2.609h-33.50917zm673.28145,0c0,.8688-.075,1.7419-.081,2.609h33.5907c.01-.874 0-1.7333 0-2.609h-33.5092zm-620.7756,109.0067-31.71549,11.5774c.29416.8186.59685,1.6302.89684,2.4459l31.71549-11.5773c-.29996-.8119-.60328-1.631-.89684-2.446zm601.5343.8154c-.2957.8142-.5946,1.6347-.8968,2.4459l31.6339,11.4958c.3021-.8151.6007-1.6279.8969-2.4459l-31.634-11.4958zm-546.66407,95.0649-25.92679,21.6872c.5526.664 1.15475,1.2969 1.71214,1.9567l25.84527-21.6872c-.54669-.6462-1.08899-1.3061-1.63062-1.9567zm490.97856,1.3045c-.56957.6769-1.13708,1.3662-1.71215,2.0382l25.84526,21.6872c.5778-.6768 1.1394-1.3569 1.7122-2.0382l-25.84531-21.6872zm-406.6757,70.1165-16.87687,29.2695c.7342.4279 1.46372.8818 2.20133,1.3045l16.95841-29.2695c-.75773-.4347-1.5291-.8638-2.28287-1.3045zm321.39447,1.1414c-.75825.4359-1.52068.8746-2.28287,1.3045l16.87688,29.2696c.76877-.4337 1.51775-.8653 2.28287-1.3045l-16.87688-29.2696zm-217.68727,37.1781-5.87022,33.183c.86631.1563 1.74043.2578 2.60899.4076l5.87021-33.1015c-.87048-.1508-1.74097-.3314-2.60898-.4891zm113.40936.4891c-.85922.1488-1.74737.2657-2.60899.4077l5.87022,33.1015c.87208-.144 1.73912-.2572 2.60899-.4077l-5.87022-33.1015z"/>
<path d="m741.10606,662.90784-.81531,24.05159 2.60899.0815 .81531-24.05159c-.86804-.0293-1.73933-.0584-2.60899-.0815zm-22.17638.0815c-.86887.0297-1.74178.12714-2.60898.16306l.8153,23.88853c.87214-.0331 1.73508-.0551 2.60899-.0815l-.81531-23.97006zm34.48754.48918-1.71215,24.05159c.86597.0556 1.74489.10087 2.60898.16307l1.71215-24.05159c-.86783-.0589-1.73938-.11039-2.60898-.16307zm-46.63563.16307c-.8678.0589-1.74298.098-2.60899.16306l1.63062,23.88853c.86418-.062 1.74296-.10768 2.60899-.16307l-1.63062-23.88852zm59.02831.8153-2.52746,23.97006c.87367.0865 1.73738.23293 2.60899.32613l2.52745-24.05159c-.86894-.0892-1.73813-.16163-2.60898-.2446zm-71.42099.2446c-.84625.0869-1.68306.15184-2.52746.24459l2.44593,23.807c.87155-.0928 1.73536-.24008 2.60898-.32613l-2.52745-23.72546zm83.73214,1.14143-3.42429,23.97006c.87596.11735 1.73523.28351 2.60898.40765l3.34277-24.05159c-.83744-.11524-1.6881-.2167-2.52746-.32612zm-95.96176.32612c-.86392.11889-1.74714.20108-2.60899.32612l3.34276,23.64394c.8702-.12317 1.7366-.20968 2.60899-.32612l-3.34276-23.64394zm120.42101,3.66889-5.05492,23.80699c.84406.17384 1.6858.39049 2.52746.57072l5.05491-23.807c-.84257-.17655-1.68264-.40011-2.52745-.57071zm-145.04332.57071c-.84286.17705-1.68687.38775-2.52746.57072l4.97338,23.23628c.84166-.18023 1.6834-.39687 2.52746-.57072l-4.97338-23.23628zm157.10988,2.1198-5.87022,23.64394c.87109.21133 1.74066.43408 2.60898.65225l5.87022-23.64394c-.8755-.21597-1.73085-.44275-2.60898-.65225zm-168.93185.57072c-.84977.20919-1.68018.43696-2.52745.65225l5.70715,22.99169c.83694-.20958 1.68797-.36749 2.52746-.57072l-5.70716-23.07322zm180.99841,2.52746-6.76706,23.39934 2.52745.73378 6.76706-23.39935c-.83939-.23864-1.68546-.50115-2.52745-.73377zm-193.1465.73377c-.84737.24094-1.68277.48672-2.52745.73378l6.52246,22.66557c.81549-.23536 1.62783-.50452 2.44593-.73378l-6.44094-22.66557zm204.96846,2.77205-7.50083,23.23628 2.52745.81531 7.50084-23.23628c-.84763-.27344-1.67698-.54807-2.52746-.81531zm-216.62737.81531c-.83234.26824-1.69787.45958-2.52745.73378l7.25624,22.5025c.84174-.27499 1.68272-.54689 2.52746-.81531l-7.25625-22.42097zm240.02672,7.50083-9.21299,22.7471c.81463.32386 1.63453.64825 2.44593.97837l9.21298-22.7471c-.81392-.32777-1.62895-.65646-2.44592-.97837zm-263.263.89684-2.44592.97837 8.80533,21.76873c.8116-.32969 1.63108-.65494 2.44592-.97837l-8.80533-21.76873zm274.75884,3.91348-9.94676,22.42097c.78546.34509 1.58217.62738 2.3644.97837l9.94675-22.42097c-.77729-.34533-1.58409-.63848-2.36439-.97837zm-286.33621.97837c-.81273.36094-1.63649.69304-2.44593,1.0599l9.53911,21.36107c.78222-.35099 1.57893-.63328 2.36439-.97837l-9.45757-21.4426zm297.58746,4.07654-10.76206,22.17638c.79214.38145 1.57582.75388 2.36439,1.14143l10.76207-22.17638-2.3644-1.14143zm-308.67565,1.0599c-.75859.3691-1.52738.76709-2.28287,1.14143l10.19136,21.03495 2.36439-1.14143-10.27288-21.03495zm319.84537,4.4842-11.57737,21.76872c.76889.40432 1.51759.81279 2.28286,1.22297l11.57738-21.76873c-.76342-.406-1.51608-.82241-2.28287-1.22296zm-330.85203,1.14143c-.78048.41436-1.58747.7214-2.3644,1.14143l11.00666,20.6273c.76553-.40977 1.51371-.81906 2.28287-1.22297l-10.92513-20.54576zm352.37617,11.16972-13.12646,20.95342c.75955.47 1.52743.91005 2.28286,1.38602l13.04493-20.95342c-.72963-.45685-1.46808-.93437-2.20133-1.38602zm-373.81878,1.14143c-.74939.46814-1.5373.91242-2.28286,1.38602l12.39268,19.73046c.73605-.4632 1.46136-.92849 2.20134-1.38602l-12.31116-19.73043zm384.33625,5.5441-13.86023,20.54576c.70121.4688 1.42242.91201 2.1198,1.38602l13.86024-20.46423c-.71265-.48211-1.4034-.99054-2.11981-1.46755zm-394.77219,1.22296c-.71742.48425-1.4062.97817-2.1198,1.46755l12.9634,19.15974c.69709-.47346 1.41888-.91777 2.1198-1.38602l-12.9634-19.24127zm404.96355,5.78869-14.59402,20.05658c.7062.50862 1.41783,1.03503 2.1198,1.54908l14.51249-20.05658c-.69123-.50387-1.34321-1.05014-2.03827-1.54908zm-415.23643,1.46755c-.69084.50327-1.43282.95939-2.1198,1.46756l13.61564,18.75208c.7018-.51428 1.41378-1.04023 2.1198-1.54908l-13.61564-18.67056zm425.18318,5.95175-15.32779,19.56739c.70675.54741 1.41767,1.07761 2.1198,1.63062l15.3278-19.56739c-.69976-.5492-1.41577-1.08663-2.11981-1.63062zm-435.04841,1.38602c-.66534.52129-1.2953,1.10466-1.95674,1.63062l14.18636,18.18137c.67211-.52935 1.36194-1.02486 2.03827-1.54908l-14.26789-18.26291zm454.20816,14.51249-16.63229,18.50749c.63197.56475 1.24764,1.14261 1.87521,1.71215l16.63228-18.50749c-.62947-.56988-1.24156-1.1468-1.8752-1.71215zm-472.96025,1.30449c-.65703.59303-1.30425,1.19576-1.95674,1.79368l15.3278,17.03994c.65796-.59694 1.37546-1.12048 2.03827-1.71215l-15.40933-17.12147zm482.01017,7.09318-17.28454,17.93678c.62663.60024 1.25336,1.18855 1.87521,1.79368l17.28453-17.85525c-.63314-.6152-1.23744-1.26476-1.8752-1.87521zm-491.06009,1.38603c-.62017.60062-1.17795,1.27005-1.79368,1.8752l15.81698,16.3877c.62197-.60503 1.24849-1.19355 1.87521-1.79368l-15.89851-16.46922zm499.86541,7.4193-17.85524,17.203c.61412.63077 1.26611,1.23954 1.8752,1.87521l17.77372-17.203c-.60197-.62767-1.18709-1.25203-1.79368-1.87521zm-508.50767,1.30449c-.61211.63555-1.26788,1.23507-1.87521,1.87521l16.46922,15.89851c.60046-.62641 1.18833-1.25356 1.79368-1.87521l-16.38769-15.89851zm517.06841,7.74543-18.5075,16.63229c.59535.656 1.20358,1.29592 1.79368,1.95674l18.42597-16.63229c-.57581-.64444-1.13168-1.3166-1.71215-1.95674zm-525.54762,1.30449c-.58083.64714-1.13607,1.30526-1.71215,1.95674l16.87688,15.24626c.57838-.64723 1.12874-1.31413 1.71215-1.95674l-16.87688-15.24626zm541.52763,17.69219-19.56737,15.24626c.553.70214 1.0832,1.41305 1.63062,2.1198l19.56735-15.32779c-.5315-.68683-1.094-1.35553-1.6306-2.03827zm-557.34461,1.30449c-.52288.67196-1.03098,1.3624-1.54908,2.03827l17.77372,13.86024c.52406-.67585 1.01989-1.36664 1.54908-2.03827l-17.77372-13.86024zm564.84551,8.56074-20.05662,14.59401c.51405.70199 1.04047,1.4136 1.54909,2.1198l20.05653-14.59401c-.5095-.70843-1.0344-1.41536-1.549-2.1198zm-572.26481,1.30449c-.51423.71092-1.04006,1.40486-1.54909,2.1198l18.26291,13.20799c.50885-.70602 1.0348-1.418 1.54908-2.1198l-18.2629-13.20799zm579.43951,8.80533-20.5458,13.94177c.474.69739.9172,1.41857 1.386,2.1198l20.6273-13.86024c-.4885-.73269-.9736-1.47257-1.4675-2.20133zm-586.53269,1.30449c-.47763.7119-.91347,1.48572-1.38602,2.20133l18.58902,12.55575c.48992-.73281.97194-1.47271 1.46756-2.20133l-18.67056-12.55575zm593.29969,9.13145-21.0349,13.12646c.4636.73577.9281,1.46163 1.386,2.20134l20.9534-13.12647c-.4506-.73016-.8487-1.47475-1.3045-2.20133zm-600.06675,1.38603c-.46005.74115-.93133,1.45648-1.38602,2.20133l19.07821,11.9035c.45012-.72777.84889-1.47737 1.30449-2.20134l-18.99668-11.90346zm612.54095,20.30117-21.7687,11.57737c.4098.76553.8191,1.51371 1.223,2.28287l21.7687-11.57738c-.4023-.76983-.8151-1.51642-1.223-2.28286zm-624.68904.97837c-.41847.79282-.81035,1.56795-1.22296,2.36439l19.56739,10.35441c.41032-.78032.88814-1.50627 1.3045-2.28286l-19.64893-10.43594zm630.39624,10.02829-22.2579,10.8436c.3837.78157.7637,1.57932 1.1414,2.36439l22.2579-10.8436-1.1414-2.36439zm-636.02187.97837c-.37539.7762-.69001,1.58498-1.0599,2.36439l19.89352,9.70217c.37815-.78484.75729-1.58306 1.14143-2.3644l-19.97505-9.70216zm641.23987,10.35441-22.5025,10.02829c.3548.79248.7111,1.5686 1.0599,2.36439l22.5025-10.02829c-.3441-.79015-.7102-1.57731-1.0599-2.36439zm-646.29478.81531c-.35769.8109-.70812,1.63179-1.0599,2.44592l20.13811,8.96839c.355-.80855.61712-1.64081.97837-2.44592l-20.05658-8.96839zm651.10508,10.51747-22.8286,9.21299c.3286.80836.6559,1.63434.9783,2.44592l22.8287-9.21298c-.3221-.81682-.6505-1.63216-.9784-2.44593zm-655.91539.89684c-.31631.79149-.66762,1.57004-.97837,2.3644l20.3827,8.23461c.31474-.79115.65773-1.5763.97837-2.3644l-20.3827-8.23461zm664.31309,22.25791-23.3178,7.58237c.2753.84155.5465,1.6829.8153,2.52746l23.3178-7.58237c-.2655-.84252-.5437-1.68775-.8153-2.52746zm-672.71077.89684c-.26074.81385-.56027,1.62945-.81531,2.44593l20.87189,6.76706c.25853-.812.4692-1.6367.73378-2.44593l-20.79036-6.76706zm676.37967,11.08819-23.5625,6.68553c.2427.84062.4977,1.68405.7338,2.52746l23.5624-6.76706c-.2264-.81888-.5015-1.6295-.7337-2.44593zm-679.96702.65225c-.23502.83274-.42316,1.69219-.65225,2.52746l20.87189,5.95175c.22925-.8181.49842-1.63044.73378-2.44593l-20.95342-6.03328zm683.14672,11.41431-23.7255,5.87022c.2108.84106.4478,1.68382.6522,2.52746l23.7255-5.87022c-.2035-.85215-.4427-1.67779-.6522-2.52746zm-686.32642.73378c-.1998.81836-.37658,1.62527-.57072,2.44593l21.11648,5.21797c.19719-.81369.36755-1.63464.57072-2.44593l-21.11648-5.21797zm689.09842,11.33278-23.8885,5.05492c.1792.83792.3163,1.68712.4892,2.52745l23.97-5.05491c-.1706-.84474-.3941-1.68499-.5707-2.52746zm-691.70741.40766c-.18091.86837-.39612,1.73824-.57072,2.60898l21.19801,4.4842c.17919-.86999.38476-1.74155.57072-2.60899l-21.19801-4.48419zm695.94701,23.97006-24.1331,3.42429c.1237.87271.2907,1.73406.4076,2.60899l24.0516-3.4243c-.1129-.86589-.2069-1.74512-.3261-2.60898zm-700.18661.32612c-.11467.83756-.21728,1.68796-.32613,2.52746l21.36108,3.01664c.11396-.84912.28731-1.68043.40765-2.52746l-21.4426-3.01664zm701.65421,11.98503-24.1332,2.52746c.093.86926.1587,1.73768.2445,2.60898l24.1331-2.52745c-.083-.87083-.1552-1.74009-.2444-2.60899zm-703.04024.24459c-.0858.84179-.1646,1.68387-.24459,2.52746l21.27954,2.28286c.0838-.84672.23601-1.68266.32613-2.52745l-21.36108-2.28287zm704.10014,12.06656-24.2147,1.71215c.062.8641.1075,1.74301.1631,2.60899l24.2146-1.71215c-.053-.86952-.1041-1.74124-.163-2.60899zm-705.16004.16306c-.0587.86786-.11057,1.73936-.16306,2.60899l21.36107,1.46756c.0558-.86593.10066-1.74495.16307-2.60899l-21.36108-1.46756zm705.81224,12.14813-24.2146.8153c.033.8721.055,1.7351.081,2.609l24.2146-.8153c-.024-.8696-.052-1.7411-.081-2.609zm-706.46448.2446c-.029.8681-.0588,1.7392-.0815,2.6089l21.36107.7338c.0261-.874.0488-1.7367.0815-2.609l-21.36107-.7337zm21.27954,23.7254-21.27954.7338c.0293.869.12752,1.7417.16306,2.609l21.19801-.7338c-.0331-.8721-.0551-1.7351-.0815-2.609zm661.05184.1631c-.027.8738-.048,1.7369-.081,2.609l24.0516.8153c.036-.8662.052-1.7411.081-2.609l-24.0516-.8153zm-660.48113,11.3328-21.19801,1.4675c.0587.8679.0982,1.7429.16306,2.609l21.19802-1.4675c-.0624-.8641-.10726-1.7431-.16307-2.609zm659.91043,0c-.056.8659-.1007,1.7449-.1631,2.609l24.0516,1.7121c.066-.8661.1038-1.7411.1631-2.609l-24.0516-1.7121zm-.8969,11.5773c-.084.8474-.2358,1.682-.3261,2.5275l23.8885,2.5275c.093-.8397.2393-1.686.3262-2.5275l-23.8886-2.5275zm-658.11669.081-21.03495,2.2014c.0886.8655.14981,1.7454.2446,2.609l21.11648-2.2014c-.0936-.8717-.23922-1.7352-.32613-2.609zm656.73069,11.333c-.1169.8708-.2024,1.7403-.3261,2.6089l23.7255,3.3428c.127-.8733.2868-1.7335.4076-2.609l-23.807-3.3427zm-655.26313.163-21.03495,2.9351c.11599.8452.20423,1.6843.32612,2.5275l21.03495-2.9351c-.12022-.8432-.21224-1.6822-.32612-2.5275zm651.43123,22.5841c-.1743.8457-.3902,1.6841-.5708,2.5274l23.3994,4.9734c.1829-.8408.3938-1.6844.5707-2.5275l-23.3993-4.9733zm-647.68082.081-20.62729,4.4026c.18112.8694.38329,1.742.57072,2.609l20.62729-4.4027c-.18615-.8673-.39133-1.739-.57072-2.6089zm2.60899,11.3327-20.54576,5.0549c.20822.8503.43793,1.6797.65224,2.5275l20.46424-5.0549c-.21042-.8366-.36667-1.6883-.57072-2.5275zm642.54433,0c-.1988.8179-.4474,1.6306-.6522,2.446l23.1547,5.7887c.216-.8472.4424-1.6779.6523-2.5275l-23.1548-5.7072zm-639.69075,11.0882-20.30117,5.7887c.23061.8179.49749,1.6305.73377,2.4459l20.21965-5.7886c-.2334-.8088-.42484-1.6347-.65225-2.446zm636.75565,0c-.2366.8439-.4908,1.6864-.7338,2.5275l22.9102,6.5224c.245-.8373.4948-1.6874.7338-2.5274l-22.9102-6.5225zm-3.2612,10.7621c-.2581.8123-.4698,1.6364-.7338,2.4459l22.6656,7.2563c.2679-.8127.4715-1.6307.7337-2.446l-22.6655-7.2562zm-630.23322.1631-20.05658,6.5224c.27047.8462.53869,1.6841.81531,2.5275l20.05658-6.5224c-.27518-.8416-.54669-1.6828-.81531-2.5274zm622.48772,21.8502c-.3173.7978-.7365,1.5697-1.0599,2.3644l21.9318,8.8869c.3336-.811.6507-1.632.9784-2.446l-21.8503-8.8053zm-614.57923.081-19.48586,7.9085c.31251.7822.57893,1.5851.89684,2.3644l19.56739-7.9085c-.32089-.788-.66338-1.5734-.97837-2.3644zm610.01353,10.599c-.3451.7855-.6274,1.5822-.9784,2.3644l21.5242,9.6207c.3658-.8071.6999-1.6357 1.0599-2.446l-21.6057-9.5391zm-605.61087.081-19.15974,8.5608c.34743.7884.70691,1.579 1.0599,2.3644l19.15975-8.5608c-.35569-.792-.71027-1.5691-1.05991-2.3644zm600.88207,10.2729c-.3918.8144-.7431,1.6353-1.1414,2.4459l21.1165,10.2729c.3942-.7945.8345-1.5664 1.2229-2.3644l-21.198-10.3544zm-595.99022.2445-18.91515,9.2129c.37022.7664.76587,1.5197 1.14144,2.2829l18.83361-9.213c-.37162-.7557-.69388-1.5239-1.0599-2.2828zm590.77232,10.1098c-.4042.769-.813,1.5175-1.223,2.2828l20.7903,11.0882c.4208-.7781.8079-1.5827 1.223-2.3644l-20.7903-11.0066zm-585.63588.1636-18.50749,9.8652c.40862.7755.72723,1.5923 1.14143,2.3644l18.58903-9.9468c-.41043-.7651-.8184-1.5141-1.22297-2.2828zm11.41432,19.8935-17.85525,11.1697c.4678.7554.9127,1.5314 1.38602,2.2829l17.85525-11.1697c-.47597-.7555-.91602-1.5234-1.38602-2.2829zm562.64416.081c-.4703.7594-.9098,1.5276-1.386,2.2829l19.8935,12.3926c.4643-.7298.9269-1.4678 1.386-2.2013l-19.8935-12.4742zm-6.1148,9.6206c-.4894.7325-.9725,1.473-1.4676,2.2014l19.3228,13.0449c.4946-.7207 1.0598-1.3952 1.5491-2.1198l-19.4043-13.1265zm-550.25149.082-17.44759,11.7404c.477.7133.9855,1.4103 1.46755,2.1198l17.36606-11.7404c-.47401-.6974-.91722-1.4186-1.38602-2.1198zm543.64746,9.376c-.50849.7063-1.03517,1.4178-1.54909,2.1198l18.83362,13.6972c.5055-.6841 1.0484-1.3504 1.5491-2.0383l-18.83363-13.7787zm-537.12499.081-16.95841,12.3927c.49081.6811.972,1.3609 1.46755,2.0383l17.03994-12.311c-.51405-.702-1.04046-1.4136-1.54908-2.1198zm530.19487,9.2131c-.52404.6766-1.01991,1.366-1.54909,2.0383l18.34444,14.2679c.5311-.6688 1.0227-1.3655 1.5491-2.0383l-18.34445-14.2679zm-523.18322.081-16.63229,12.9634c.52209.6737 1.02222,1.3686 1.54909,2.0383l16.63228-12.9634c-.52935-.6721-1.02486-1.3619-1.54908-2.0383zm14.67554,17.6922-15.65391,14.1049c.59118.6621 1.19755,1.2991 1.79367,1.9567l15.65392-14.0233c-.60922-.671-1.18994-1.3622-1.79368-2.0383zm493.7506,0c-.56453.6322-1.14281,1.2475-1.71214,1.8752l17.203,15.4909c.57045-.6229 1.14615-1.2482 1.71214-1.8752l-17.203-15.4909zm-485.84211,8.4792-15.16473,14.6756c.61065.6375 1.2598,1.2422 1.87521,1.8752l15.0832-14.594c-.61898-.6359-1.17982-1.3159-1.79368-1.9568zm478.01515,0c-.59594.6222-1.1929,1.2578-1.79367,1.8752l16.55075,15.9801c.60964-.6204 1.18863-1.2503 1.79368-1.8752l-16.55076-15.9801zm-469.9436,8.2346-14.51248,15.1648c.62318.6066 1.24754,1.1917 1.87521,1.7937l14.59401-15.0832c-.64979-.6225-1.31206-1.2476-1.95674-1.8753zm461.79052,0c-.61726.601-1.25325,1.1976-1.87521,1.7937l15.98004,16.4692c.62979-.5973 1.24989-1.1917 1.87521-1.7936l-15.98004-16.4693zm-453.39285,7.9085-14.02329,15.654c.63975.5808 1.31268,1.1359 1.95673,1.7121l14.0233-15.6539c-.64723-.5784-1.31413-1.1287-1.95674-1.7122zm444.99518,0c-.64259.5835-1.3095,1.1338-1.95674,1.7122l15.40932,16.9584c.61883-.5473 1.2603-1.079 1.87521-1.6306l-15.32779-17.04zm-427.30299,14.9203-12.9634,16.6323c.69996.5516 1.41554,1.0842 2.1198,1.6306l12.9634-16.6323c-.70675-.5474-1.41766-1.0776-2.1198-1.6306zm409.6108,0c-.70213.553-1.41305,1.0832-2.1198,1.6306l14.0233,17.9368 2.1198-1.6306-14.0233-17.9368zm-400.39782,7.0117-12.39268,17.0399c.70206.5147 1.41376,1.0395 2.1198,1.5491l12.39268-17.04c-.7062-.5086-1.41781-1.035-2.1198-1.549zm391.10331.081c-.68927.5043-1.42646.9684-2.1198,1.4675l13.37105,18.426c.71541-.5089 1.40841-1.0351 2.1198-1.5491l-13.37105-18.3444zm-9.29451,6.5224c-.70999.4829-1.40585.9901-2.1198,1.4676l12.63727,18.7521c.73777-.4874 1.46748-.9749 2.20133-1.4676l-12.7188-18.7521zm-372.35122.082-11.82197,17.4476c.73278.4987 1.46456.9742 2.20133,1.4675l11.82197-17.4476c-.73251-.4893-1.473-.9725-2.20133-1.4675zm362.73058,6.1963c-.7356.4638-1.46179.9279-2.20133,1.386l11.98503,19.0783c.72639-.4444 1.47846-.8551 2.20133-1.3045l-11.98503-19.1598zm-353.10995.081-11.16972,17.8553c.75116.4737 1.52785.9178 2.28286,1.386l11.16973-17.8553c-.75957-.47-1.52745-.91-2.28287-1.386zm333.1349,11.5774c-.76511.4104-1.51412.8184-2.28286,1.223l10.51748,19.8119c.77614-.4024 1.51015-.8964 2.28286-1.3044l-10.51748-19.7304zm-313.15985.081-9.86523,18.589c.76475.4105 1.5147.8179 2.28287,1.223l9.86522-18.589c-.76889-.4044-1.51759-.8128-2.28286-1.223zm10.27288,5.218-9.21298,18.9966c.75658.3727 1.52318.7741 2.28287,1.1415l9.29451-18.9967-2.3644-1.1414zm292.61409,0c-.78846.3877-1.57236.7598-2.36439,1.1414l9.78369,20.0566 2.3644-1.1415-9.7837-20.0565zm-282.17814,4.9733-8.56074,19.2413c.80785.3633 1.63482.7025 2.44593,1.0599l8.56073-19.2413c-.81854-.3592-1.63093-.6941-2.44592-1.0599zm271.57913,0c-.81509.3656-1.6273.7008-2.44592,1.0599l9.04992,20.3012c.81442-.3517 1.63477-.7023 2.44593-1.0599l-9.04993-20.3009zm-260.8986,4.4842-7.90848,19.5674c.78864.322 1.57285.6619 2.36439.9784l7.90849-19.5674c-.78815-.3136-1.57927-.6589-2.3644-.9784zm250.46266,0c-.80805.3293-1.63466.6554-2.44592.9784l8.31614,20.5458c.81768-.3202 1.63129-.6523 2.44592-.9784l-8.31614-20.5455zm-21.6872,7.9085c-.81679.2676-1.62628.554-2.44592.8153l6.76706,20.9535c.82621-.2583 1.6224-.5513 2.44592-.8153l-6.76706-20.9535zm-207.16979.081-6.52246,20.1381c.8302.273 1.69448.4668 2.52745.7338l6.52247-20.0566-2.52746-.8153zm11.08819,3.4243-5.78869,20.3827 2.52746.7338 5.78869-20.3823-2.52746-.7338zm184.91188,0c-.86576.25-1.74027.4908-2.60898.7338l6.03328,21.1165 2.60898-.7338-6.03328-21.1165zm-11.00666,2.9351c-.84079.2116-1.68404.4472-2.52745.6523l5.2995,21.198c.84641-.2009 1.68348-.3637 2.52746-.5707l-5.29951-21.2792zm-162.7355.081-5.13644,20.5458c.84766.2145 1.67729.4439 2.52746.6522l5.13644-20.6272c-.83728-.2033-1.69271-.3613-2.52746-.5708zm151.32119,2.5275c-.86931.1863-1.73711.3913-2.60899.5707l4.56573,21.3611c.87096-.1746 1.7404-.3899 2.60899-.5707l-4.56573-21.3611zm-140.06994.081-4.40266,20.7088c.84109.1819 1.68407.3949 2.52746.5707l4.40266-20.7903c-.84025-.173-1.68961-.3098-2.52746-.4892zm117.48591,3.9135c-.8725.1244-1.73428.29-2.60899.4076l3.01664,21.5242c.86981-.1127 1.74124-.2886 2.60899-.4077l-3.01664-21.5241zm-94.82034.081-2.93511,21.1165c.86198.1247 1.74494.2076 2.60899.3261l2.93511-21.1165c-.87083-.1169-1.74038-.2025-2.60899-.3261zm11.49584,1.386-2.28286,21.2795c.87135.096 1.73568.1553 2.60899.2445l2.28286-21.198c-.87432-.087-1.73672-.2327-2.60899-.3261zm71.91018,0c-.87244.094-1.73448.2392-2.60898.3261l2.28286,21.4426 2.60898-.2444-2.28286-21.5242zm-60.41433,1.0599-1.46756,21.3611c.86601.065 1.74119.1041 2.60899.163l1.46756-21.361c-.86593-.056-1.74495-.1007-2.60899-.1631zm48.91849,0c-.83704.061-1.68867.1083-2.52746.1631l1.46756,21.5241c.86955-.053 1.74121-.1041 2.60898-.1631l-1.54908-21.5241zm-37.42265.6522-.73377,21.3611c.86725.036 1.74006.1336 2.60898.1631l.73378-21.4426-2.60899-.081zm25.76374,0c-.87213.033-1.73508.055-2.60899.081l.73378,21.5242c.86971-.024 1.7409-.053 2.60899-.081l-.73378-21.5242z"/>
</g>
</svg>
