<?xml version="1.0" encoding="UTF-8" standalone="no"?>
<svg width="418" xmlns="http://www.w3.org/2000/svg" height="270" viewBox="0 172 418 270">
 <g id="g1882">
  <g fill="#000000">
   <g id="g1884">
    <path id="path1886" d="m89.25 279.01c21.589 0 39.087-17.499 39.087-39.084 0-21.589-17.498-39.091-39.087-39.091-21.585 0-39.085 17.502-39.085 39.091 0 21.585 17.5 39.084 39.085 39.084z"/>
    <path id="path1888" d="m89.25 239.93"/>
   </g>
   <path id="path1890" d="m173.65 228.84h156.23c22.921 0 36.423 14.753 36.423 34.504v56.552h-192.66v-91.056z"/>
   <path id="path1892" d="m131.12 249.08v33.918h-60.069c-29 0.104-29.047 37.382 0 37.382h78.75c11.5 0 18.7-9.282 18.7-19.782v-51.518c0-28.222-37.381-28.222-37.381 0z"/>
   <path id="path1894" d="m42.702 196.26c0-30.779-42.702-30.779-42.702 0v246.81h43.651v-63.74h332.12v63.261h42.7v-190.63c0-32.482-43.174-32.482-43.174 0v76.088h-332.59v-131.79z"/>
  </g>
 </g>
</svg>
