<?xml version="1.0" encoding="UTF-8"?>
<svg viewBox="0 0 541 747" xmlns="http://www.w3.org/2000/svg">
<defs>
<linearGradient id="svg_6" x2="1">
<stop offset=".30859" stop-color="#ff0000"/>
<stop offset="1" stop-color="#7f0000" stop-opacity=".99609"/>
<stop offset="1" stop-color="#ff8000"/>
</linearGradient>
</defs>
<title>Blue Drop</title>
<title>Layer 1</title>
<path d="m432,452v33c-2.20001,6.10001-.29999,14.60001-3,21-12.40002,108-104.79999,206.09998-212,225-10.89999,4.29999-23.79999,4.20001-35,6h-41c-11.2-1.79999-24.10001-1.70001-35-6-115.6-19.90002-209.746-131.29999-215-247v-34c3.663-22.60001 8.322-46.10001 17.25-67.70001 9.04-17.39999 18.35-34.69998 29-51l34-46c76.05-90.39999 142.64999-187.49999 192.75-293.29999l13.79999,29.25c41.40002,100.85001 106.70001,190.14999 178,274.04999 7.70001,11.30002 16,22.30002 25,33 13.40002,20.60001 26.5,41.40002 37,64 7.20001,19.10001 11.70001,39.70001 14.20001,59.70001z" fill="url(#svg_6)" stroke="#03417f" stroke-width="5"/>
</svg>
